<svg id="c6" width="115" height="200" version="1.1" xmlns="http://www.w3.org/2000/svg">
<polygon class="b1" points="3,0 97,0 82,15 18,15" />
    <polygon class="b2" points="0,3 0,97 15,89.5 15,18" />
    <polygon class="b3" points="100,3 100,97.5 85,89.5 85,18" />
    <polygon class="b4" points="3,100 18,92.5 82,92.5 97,100 82,107.5 18,107.5" />
    <polygon class="b5" points="0,103 0,197 15,182 15,110.5" />
    <polygon class="b6" points="100,103 100,197 85,182 85,110.5" />
    <polygon class="b7" points="3,200 97,200 82,185 18,185" />
</svg>